<svg width="24" height="24" viewBox="0 0 24 24" fill="none" xmlns="http://www.w3.org/2000/svg">
<g id="Trophy">
<path id="Shape" fill-rule="evenodd" clip-rule="evenodd" d="M6 4.5H5.25V3H18.75V4.5H18V6H20.625V13.1852L17.978 14.6978C17.7532 16.9729 15.8342 18.75 13.5 18.75H12.75V21H15.75V22.5H8.25V21H11.25V18.75H10.5C8.17548 18.75 6.26262 16.9875 6.02487 14.726L3 13.2135V6H6V4.5ZM7.5 4.5V14.25C7.5 15.9069 8.84315 17.25 10.5 17.25H13.5C15.1569 17.25 16.5 15.9069 16.5 14.25V4.5H7.5ZM6 7.5H4.5V12.2865L6 13.0365V7.5ZM18 12.9576L19.125 12.3148V7.5H18V12.9576Z" fill="#fffffff2"></path>
</g>
</svg>