<svg width="25" height="31" viewBox="0 0 25 31" fill="none" xmlns="http://www.w3.org/2000/svg"><path d="M13.874 5C13.4299 6.72523 11.8638 8 10 8C8.13616 8 6.57006 6.72523 6.12602 5C6.04381 4.68048 6 4.34518 6 4C6 3.6547 6.04375 3.31962 6.12602 3C6.57006 1.27477 8.13616 0 10 0C11.8638 0 13.4299 1.27477 13.874 3C13.9562 3.31952 14 3.65482 14 4C14 4.3453 13.9562 4.68038 13.874 5Z" fill="currentColor"></path><path d="M15.917 5C15.9716 4.67479 16 4.34071 16 4C16 3.65929 15.9716 3.32521 15.917 3H20V17.0619C19.6724 17.021 19.3387 17 19 17C18.6613 17 18.3276 17.021 18 17.0619V5H15.917Z" fill="currentColor"></path><path d="M12.0703 21H4V25H11C11 23.5429 11.3896 22.1767 12.0703 21Z" fill="currentColor"></path><path d="M11.252 27H2V5H4.08296C4.0284 4.67479 4 4.34071 4 4C4 3.65929 4.0284 3.32521 4.08296 3H0V29H12.0703C11.7122 28.381 11.4347 27.7095 11.252 27Z" fill="currentColor"></path><path d="M16 13V11H4V13H16Z" fill="currentColor"></path><path fill-rule="evenodd" clip-rule="evenodd" d="M19 31C22.3137 31 25 28.3137 25 25C25 21.6863 22.3137 19 19 19C15.6863 19 13 21.6863 13 25C13 28.3137 15.6863 31 19 31ZM20 24V21H18V24H15V26H18V29H20V26H23V24H20Z" fill="currentColor"></path></svg>