<svg width="18" height="20" viewBox="0 0 18 20" fill="none" xmlns="http://www.w3.org/2000/svg"><path fill-rule="evenodd" clip-rule="evenodd" d="M13.0903 6.75C12.143 6.75 11.375 7.51793 11.375 8.46526C11.375 9.41258 12.143 10.1805 13.0903 10.1805C13.5642 10.1805 13.9919 9.98955 14.3032 9.67825C14.6145 9.36696 14.8056 8.93914 14.8056 8.46526C14.8056 7.51793 14.0376 6.75 13.0903 6.75ZM9.75 8.46526C9.75 6.62047 11.2455 5.125 13.0903 5.125C14.9351 5.125 16.4306 6.62047 16.4306 8.46526C16.4306 9.0927 16.2571 9.68045 15.956 10.1821L17.637 11.863L16.488 13.012L14.807 11.331C14.3054 11.632 13.7177 11.8055 13.0903 11.8055C11.2455 11.8055 9.75 10.31 9.75 8.46526Z" fill="#fffffff2"></path><path d="M7.70102 8.11353L8.51449 0.25L0 11.8865H6.47062L5.65715 19.75L10.9631 12.4986C10.6334 12.3244 10.3276 12.1109 10.0521 11.8644L7.18286 15.7857L7.70102 10.7768H2.187L6.98877 4.21435L6.47062 9.22322H8.59397C8.55272 8.9767 8.53125 8.72349 8.53125 8.46526C8.53125 8.34691 8.53576 8.22961 8.54462 8.11353H7.70102Z" fill="#fffffff2"></path></svg>