<svg width="24" height="24" viewBox="0 0 24 24" fill="none" xmlns="http://www.w3.org/2000/svg"><g id="Hourglass"><path id="Shape" fill-rule="evenodd" clip-rule="evenodd" d="M5.25 2.25H4.5V3.75H5.25V6.70615C5.25 7.91721 5.83487 9.05373 6.82036 9.75765L9.10523 11.3897C9.52399 11.6888 9.52399 12.3112 9.10523 12.6103L6.82036 14.2424C5.83487 14.9463 5.25 16.0828 5.25 17.2939V20.25H4.5V21.75H5.25H6H18H18.75H19.5V20.25H18.75V17.2939C18.75 16.0828 18.1651 14.9463 17.1796 14.2424L14.8948 12.6103C14.476 12.3112 14.476 11.6888 14.8948 11.3897L17.1796 9.75765C18.1651 9.05373 18.75 7.91721 18.75 6.70615V3.75H19.5V2.25H18.75H18H6H5.25ZM17.25 3.75H6.75V6.70615C6.75 7.43279 7.10092 8.1147 7.69221 8.53705L9.97709 10.1691C11.2334 11.0664 11.2334 12.9336 9.97709 13.8309L7.69221 15.463C7.10092 15.8853 6.75 16.5672 6.75 17.2939V20.25H17.25V17.2939C17.25 16.5672 16.8991 15.8853 16.3078 15.463L14.0229 13.8309C12.7666 12.9336 12.7666 11.0664 14.0229 10.1691L16.3078 8.53705C16.8991 8.1147 17.25 7.43279 17.25 6.70615V3.75ZM8.25 6.75H15.75V7.125L12.4301 9.44893C12.1719 9.6297 11.8281 9.6297 11.5699 9.44893L8.25 7.125V6.75ZM15.75 18.75H8.25V17.625L11.5699 15.3011C11.8281 15.1203 12.1719 15.1203 12.4301 15.3011L15.75 17.625V18.75Z" fill="currentColor"></path></g></svg>