<svg height="96" viewBox="0 0 96 96" width="96" xmlns="http://www.w3.org/2000/svg"><path d="m48 23 38.0422607 27.6393202-14.5308506 44.7213596h-47.0228202l-14.53085055-44.7213596zm0 9.889-28.638 20.806 10.939 33.665h35.397l10.939-33.665zm0 6.111 7.053423 14.2917961 15.7719334 2.291796-11.4126782 11.1246118 2.6941679 15.708204-14.1068461-7.4164079-14.1068461 7.4164079 2.6941679-15.708204-11.4126782-11.1246118 15.7719334-2.291796zm32-39v20l-11.317 10.61-6.591-4.788 9.908-9.289v-8.533h-15.0002607l-.000423 14.122-8.9993163-6.5384079-9.0006837 6.5384079.000423-14.122h-14.9997393v8.534l9.908 9.288-6.591 4.788-11.317-10.61v-20z" fill="#fffffff2"></path></svg>