<svg width="17" height="20" viewBox="0 0 17 20" fill="none" xmlns="http://www.w3.org/2000/svg">
<path fill-rule="evenodd" clip-rule="evenodd" d="M8.25 1.5C5.35051 1.5 3 3.85051 3 6.75V13.5H13.5V6.75C13.5 3.85051 11.1495 1.5 8.25 1.5ZM15 13.5V6.75C15 3.02208 11.9779 0 8.25 0C4.52208 0 1.5 3.02208 1.5 6.75V13.5H0V15H16.5V13.5H15Z" fill="#fffffff2"></path>
<path fill-rule="evenodd" clip-rule="evenodd" d="M6.75 16.5C6.75 17.3284 7.42157 18 8.25 18C9.07843 18 9.75 17.3284 9.75 16.5H11.25C11.25 18.1569 9.90685 19.5 8.25 19.5C6.59315 19.5 5.25 18.1569 5.25 16.5H6.75Z" fill="#fffffff2"></path>
</svg>