<svg width="20" height="20" viewBox="0 0 20 20" fill="currentColor" xmlns="http://www.w3.org/2000/svg"><path fill-rule="evenodd" clip-rule="evenodd" d="M10 2.5C5.85786 2.5 2.5 5.85786 2.5 10C2.5 14.1421 5.85786 17.5 10 17.5C14.1421 17.5 17.5 14.1421 17.5 10C17.5 5.85786 14.1421 2.5 10 2.5ZM1.25 10C1.25 5.16751 5.16751 1.25 10 1.25C14.8325 1.25 18.75 5.16751 18.75 10C18.75 14.8325 14.8325 18.75 10 18.75C5.16751 18.75 1.25 14.8325 1.25 10Z" fill='#195aff'></path><path fill-rule="evenodd" clip-rule="evenodd" d="M10 6.25C8.96447 6.25 8.125 7.08947 8.125 8.125H6.875C6.875 6.39911 8.27411 5 10 5C11.7259 5 13.125 6.39911 13.125 8.125C13.125 9.63685 12.0514 10.8979 10.625 11.1875V12.5H9.375V10.625L10 10C11.0355 10 11.875 9.16053 11.875 8.125C11.875 7.08947 11.0355 6.25 10 6.25ZM9.375 15V13.75H10.625V15H9.375Z" fill='#195aff'></path></svg>