<svg width="24" height="24" viewBox="0 0 24 24" xmlns="http://www.w3.org/2000/svg">
  <g id="Ranking Crown">
    <path id="Shape" fill-rule="evenodd" clip-rule="evenodd" d="M9.74995 6.75L11.9999 3.375L14.2499 6.75L13.3256 8.13647L15.4013 11.25H16.8486L17.8486 9.75003L16.8492 8.25105L17.8499 6.75003H20.25H21.75H22.6066L22.4934 7.59915L20.9934 18.8492L20.9066 19.5H20.25H3.74995H3.09331L3.00653 18.8492L1.50653 7.59915L1.39331 6.75003H2.24995H4.49995H6.14997L7.15065 8.25106L6.15134 9.75003L7.15134 11.25H8.59856L10.6743 8.13647L9.74995 6.75ZM3.10659 8.25003L4.40659 18H19.5933L20.8933 8.25003H20.25H18.6513L19.374 9.33401L19.6513 9.75003L19.374 10.1661L17.874 12.4161L17.6513 12.75H17.2499H14.9999H14.5986L14.3759 12.4161L11.9999 8.85211L9.62399 12.4161L9.40134 12.75H8.99995H6.74995H6.34856L6.12591 12.4161L4.62591 10.1661L4.34856 9.75003L4.62591 9.33401L5.34856 8.25003H4.49995H3.10659ZM11.9999 12L10.4999 14.25L11.9999 16.5L13.4999 14.25L11.9999 12Z" fill="#fffffff2"></path>
  </g>
</svg>
