<svg width="16" height="16" viewBox="0 0 16 16" fill="none" xmlns="http://www.w3.org/2000/svg">
<path fill-rule="evenodd" clip-rule="evenodd" d="M2 4.5C2 4.22386 2.22386 4 2.5 4H14V6.5H9.5H6.5H2V4.5ZM2.65064 8.9666C2.74199 8.46415 2.67627 7.95371 2.47371 7.5H5.9009L5.64443 8.91056L5.15736 11.5894C5.11414 11.8272 4.90707 12 4.66543 12H2.09911L2.65064 8.9666ZM8.5 8.5H6.73547L6.91729 7.5H9V8C9 8.27614 8.77615 8.5 8.5 8.5ZM14 7.5H10V8C10 8.82843 9.32843 9.5 8.5 9.5H6.55366L6.14123 11.7683C6.01155 12.4816 5.39036 13 4.66543 13H1.5C1.35174 13 1.21113 12.9342 1.11613 12.8204C1.02113 12.7065 0.981547 12.5564 1.00807 12.4106L1.66677 8.78771C1.75482 8.30344 1.59967 7.80678 1.25162 7.45873L1.14645 7.35355C1.05268 7.25979 1 7.13261 1 7V4.5C1 3.67157 1.67158 3 2.5 3H14C14.5523 3 15 3.44771 15 4V6.5C15 7.05228 14.5523 7.5 14 7.5ZM4.5 8C4.22386 8 4 8.22386 4 8.5V9C4 9.27614 4.22386 9.5 4.5 9.5C4.77615 9.5 5 9.27614 5 9V8.5C5 8.22386 4.77615 8 4.5 8Z" fill="#FFFFFFF2"></path>
</svg>