<svg width="105" height="28" viewBox="0 0 105 28" fill="none" xmlns="http://www.w3.org/2000/svg">
<g clip-path="url(#clip0_120_17406)">
<path fill-rule="evenodd" clip-rule="evenodd" d="M6.38618 -0.000976444C4.79927 -0.00136226 3.36421 0.937034 2.73606 2.38507L0.160781 8.39699C-0.396881 9.69952 0.564618 11.1449 1.98915 11.1449H10.3747C10.7727 11.1449 11.1321 10.9088 11.2883 10.545L12.1217 8.60517H3.29645L5.65601 3.10714L4.37477 2.50501H14.086C14.4839 2.50501 14.8434 2.26896 14.9995 1.90523L15.8181 0.000183559L6.38618 -0.000976444ZM28.0199 8.74294C27.3966 10.1995 25.9597 11.1449 24.3689 11.1449H15.5056C14.0824 11.1449 13.1219 9.69759 13.681 8.39467L16.2561 2.39628C16.8802 0.942456 18.3159 -0.000971223 19.9051 -0.000971223H28.7686C30.1922 -0.000971223 31.1523 1.44668 30.5931 2.7492L28.0199 8.74294ZM25.1198 8.00578L27.4797 2.50504H17.9507L19.1694 3.10714L16.8094 8.6052H24.2075C24.6049 8.6052 24.9639 8.36915 25.1198 8.00539V8.00578ZM35.7893 27.7332H33.9053L37.6188 19.0921C37.4738 19.0921 33.5138 19.0928 33.5138 19.0928L34.599 16.5872H45.9998L45.2456 18.3619C45.0657 18.786 44.553 19.0928 44.0514 19.0928H40.8075L37.6188 26.5319C37.3067 27.2603 36.5867 27.7332 35.7893 27.7332ZM73.0994 24.634H72.0966L69.369 24.6301L68.0145 27.7326H64.8819L69.6811 16.5872H72.8056L70.5442 21.8487L77.9656 16.7622C78.1314 16.6484 78.3282 16.5872 78.53 16.5872H83.2278L74.9125 22.3316L78.665 27.7332H75.2326L73.0994 24.6343V24.634ZM67.1034 16.5872H63.8908L59.0986 27.7332H61.4375C61.9398 27.7332 62.4771 27.4018 62.6575 26.9772L65.4515 20.4455L67.1034 16.5872ZM57.7084 27.7326H54.3623L52.9819 25.1931H47.0594L46.4836 26.5335C46.1713 27.2611 45.4521 27.7326 44.6562 27.7326H42.7467L47.5349 16.5872H58.1847C59.6098 16.5872 60.5715 18.0344 60.0118 19.337L57.948 24.1421C57.6742 24.7798 57.0436 25.1935 56.3461 25.1935L57.7089 27.7332L57.7084 27.7326ZM58.7553 22.2116L56.9826 19.0928L48.2036 19.1005L49.4184 19.6848L48.1241 22.7147H54.778C55.1766 22.7147 55.5364 22.4779 55.6923 22.1133L56.9821 19.0932L58.7553 22.2116ZM85.3599 21.2165H92.5611L91.883 22.7896C91.7263 23.1521 91.3679 23.3874 90.9714 23.3874H84.4228L83.6425 25.1934H92.4383L91.6111 27.1318C91.4557 27.4962 91.0965 27.7332 90.6985 27.7332H80.8498C80.1384 27.7332 79.6585 27.0095 79.9377 26.3581L83.6141 17.7865C83.9264 17.0594 84.6441 16.5872 85.4389 16.5872H96.1348L95.3183 18.4923C95.1624 18.856 94.8032 19.0921 94.4059 19.0921H84.777L86.0182 19.6822L85.3599 21.2165ZM33.1314 8.60329L36.7914 0.00135407H34.8816C34.0868 0.00135407 33.3683 0.472746 33.0558 1.19957L29.9601 8.39352C29.3997 9.69624 30.3608 11.1449 31.786 11.1449H39.9136C41.5077 11.1449 42.9469 10.1978 43.5697 8.73914L47.3014 0.00135407L45.4124 -0.000968612C44.6153 -0.00212866 43.8945 0.471198 43.5827 1.20112L40.6737 8.0007C40.5189 8.36683 40.1581 8.60483 39.7585 8.60483L33.1314 8.60329ZM65.8923 11.1449H64.0081L67.7218 2.50387C67.5768 2.50387 63.6165 2.50465 63.6165 2.50465L64.7018 -0.000971223H76.1025L75.3486 1.77366C75.1685 2.19777 74.6557 2.50465 74.1542 2.50465H70.9102L67.7218 9.94371C67.4095 10.672 66.6895 11.1449 65.8923 11.1449ZM100.542 8.60528L101.904 11.1445H98.5581L97.1778 8.60488H91.2553L90.6794 9.9453C90.3671 10.6728 89.6479 11.1445 88.852 11.1445H86.9425L91.7305 -0.000971223H102.38C103.805 -0.000971223 104.767 1.44624 104.208 2.74873L102.144 7.55391C101.87 8.19162 101.239 8.60528 100.542 8.60528ZM101.179 2.50457L102.952 5.62342L101.178 2.50494L99.8884 5.52511C99.7325 5.88963 99.3727 6.12646 98.9741 6.12646H92.3199L93.6142 3.09661L92.3994 2.51229L101.179 2.50457ZM86.1941 4.62834H78.976L79.6358 3.094L78.3918 2.50387H88.0434C88.4417 2.50387 88.8017 2.26782 88.9581 1.90406L89.7764 -0.000971223H79.0553C78.2586 -0.000971223 77.5391 0.47113 77.2263 1.19824L73.5413 9.76996C73.2613 10.4212 73.7423 11.1449 74.4555 11.1449H84.3271C84.7262 11.1449 85.0862 10.908 85.2421 10.5435L86.0711 8.6052H77.2547L78.0368 6.79921H84.6008C84.9984 6.79921 85.3576 6.56394 85.5145 6.20135L86.1941 4.62834ZM48.396 9.94509C48.0834 10.6724 47.3639 11.1449 46.5673 11.1449H44.657L49.4478 0.000963006L51.8414 -0.000971223C52.21 -0.000971223 52.5487 0.200991 52.7207 0.524828L56.5431 7.70686L59.3523 1.19958C59.6651 0.474529 60.3827 0.00405998 61.1773 0.00328575L63.1178 0.000963006L58.5796 10.5455C58.4232 10.9089 58.0637 11.1449 57.6654 11.1449H55.6333C55.2653 11.1449 54.9274 10.9429 54.7551 10.6198L51.0729 3.71831L48.3952 9.94509H48.396ZM26.1536 25.1934L26.919 23.4114L26.9193 23.411L20.956 23.4114H20.2258C18.8019 23.4114 17.8404 21.9676 18.3965 20.6655L18.6937 19.9701L19.1096 18.995C19.7323 17.5353 21.1729 16.5872 22.7685 16.5872H32.9776L32.1627 18.4919C32.007 18.8564 31.6468 19.0928 31.2484 19.0928H20.6997L21.9491 19.695L21.458 20.8427H28.1447C29.5702 20.8427 30.5321 22.29 29.9724 23.5925L29.224 25.3346C28.5994 26.7892 27.1607 27.7332 25.569 27.7332H15.3592L16.1993 25.7908C16.3562 25.4282 16.7149 25.1934 17.1121 25.1934H26.1536Z" fill="white"/>
</g>
<defs>
<clipPath id="clip0_120_17406">
<rect width="104.37" height="27.7342" fill="white"/>
</clipPath>
</defs>
</svg>
