<svg width="176" height="28" viewBox="0 0 176 28" fill="none" xmlns="http://www.w3.org/2000/svg">
<g clip-path="url(#clip0_178_28949)">
<path fill-rule="evenodd" clip-rule="evenodd" d="M5.26722 13.9988C5.26722 9.5377 8.78094 5.91893 13.1176 5.91893C15.7299 5.91893 18.035 7.23673 19.4634 9.25613L23.7821 6.14279C21.4007 2.72942 17.5125 0.5 13.1154 0.5C5.87265 0.5 0 6.54436 0 13.9988C0 16.8306 0.847598 19.457 2.29614 21.6264L6.61037 18.5177C5.76277 17.2276 5.26722 15.6721 5.26722 13.9965V13.9988Z" fill="white"/>
<path fill-rule="evenodd" clip-rule="evenodd" d="M25.2173 8.78528L13.2993 17.3752C13.2993 17.3752 17.3714 17.3729 20.2438 17.3752C19.0016 20.1516 16.2816 22.081 13.1177 22.081C11.4831 22.081 9.965 21.5664 8.7093 20.6848L4.22241 23.9181C6.56116 26.1406 9.68471 27.5 13.1177 27.5C20.3627 27.5 26.2331 21.4556 26.2331 14.0011C26.2331 12.1525 25.872 10.3916 25.2173 8.78528Z" fill="white"/>
<path fill-rule="evenodd" clip-rule="evenodd" d="M148.552 22.8265H137.632V4.89419H140.264V20.3778H148.552V22.8242V22.8265ZM161.952 16.6783V4.89419H159.364V16.5467C159.364 17.336 159.218 18.0168 158.925 18.5938C158.631 19.1708 158.218 19.6162 157.682 19.9278C157.147 20.2417 156.525 20.3963 155.815 20.3963C155.104 20.3963 154.483 20.2393 153.953 19.9278C153.422 19.6162 153.012 19.1685 152.725 18.5869C152.435 18.0053 152.292 17.3245 152.292 16.5444V4.89419H149.704V16.6783C149.704 17.883 149.969 18.9515 150.5 19.8862C151.032 20.8209 151.76 21.5456 152.691 22.058C153.619 22.5703 154.662 22.8265 155.817 22.8265C156.972 22.8265 158.028 22.5703 158.961 22.058C159.893 21.5456 160.624 20.8209 161.156 19.8862C161.687 18.9515 161.952 17.883 161.952 16.6783ZM173.379 17.636C173.379 18.1784 173.269 18.6538 173.049 19.0623C172.829 19.4731 172.506 19.7939 172.08 20.027C171.657 20.2601 171.148 20.3778 170.558 20.3778H166.45V14.9174H170.558C171.141 14.9174 171.645 15.0327 172.076 15.2612C172.504 15.4897 172.829 15.8059 173.049 16.2075C173.269 16.609 173.379 17.0845 173.379 17.6337M173.119 9.90462C173.119 10.7147 172.867 11.3447 172.363 11.7948C171.858 12.2448 171.175 12.4687 170.309 12.4687H166.448V7.34055H170.309C170.876 7.34055 171.37 7.4421 171.791 7.64058C172.213 7.84136 172.538 8.13447 172.771 8.5245C173.004 8.91222 173.119 9.3738 173.119 9.90462ZM176 17.7584C176 16.7083 175.753 15.8267 175.256 15.1135C174.76 14.4004 174.141 13.895 173.401 13.5995C173.809 13.4357 174.193 13.1749 174.547 12.8195C174.901 12.4618 175.186 12.0233 175.404 11.504C175.619 10.9824 175.729 10.4147 175.729 9.80076C175.729 8.80837 175.518 7.9406 175.096 7.19977C174.675 6.45894 174.069 5.88889 173.276 5.48962C172.484 5.09267 171.567 4.89188 170.529 4.89188H163.817V22.8242H170.789C171.805 22.8242 172.708 22.6303 173.5 22.2403C174.291 21.8503 174.906 21.2779 175.343 20.5186C175.78 19.7593 175.998 18.8408 175.998 17.7584M132.642 20.1147C132.205 20.3501 131.663 20.4678 131.017 20.4678C130.517 20.4678 130.048 20.3732 129.606 20.1817C129.165 19.9901 128.792 19.7293 128.49 19.397C128.077 18.9192 127.806 18.3192 127.676 17.6014C127.548 16.8837 127.483 15.6351 127.483 13.8603C127.483 12.9118 127.496 12.1502 127.523 11.5778C127.55 11.0055 127.604 10.5116 127.68 10.0939C127.759 9.67614 127.855 9.34149 127.974 9.08993C128.09 8.83837 128.263 8.5822 128.49 8.32371C128.795 7.98214 129.167 7.71904 129.606 7.53211C130.048 7.34517 130.517 7.25285 131.017 7.25285C131.665 7.25285 132.205 7.37055 132.642 7.60596C132.977 7.78597 133.331 8.05369 133.705 8.40449L135.777 6.93436C135.098 6.22353 134.391 5.69503 133.654 5.34653C132.916 5.00035 132.037 4.82495 131.015 4.82495C130.133 4.82495 129.313 4.9865 128.557 5.3073C127.801 5.6281 127.126 6.09891 126.532 6.71511C126.119 7.15361 125.801 7.60365 125.579 8.06292C125.357 8.52219 125.196 9.01608 125.099 9.54459C125.001 10.0731 124.94 10.6547 124.913 11.287C124.886 11.9217 124.873 12.7779 124.873 13.8603C124.873 15.2658 124.9 16.3459 124.953 17.0983C125.007 17.8507 125.153 18.5477 125.386 19.1893C125.619 19.8309 126.003 20.4378 126.532 21.0056C126.907 21.3956 127.335 21.7372 127.819 22.0303C128.304 22.3234 128.808 22.5403 129.335 22.6834C129.862 22.8265 130.423 22.8957 131.015 22.8957C131.716 22.8957 132.344 22.815 132.898 22.6511C133.452 22.4872 133.968 22.2449 134.443 21.9218C134.918 21.5987 135.362 21.2202 135.777 20.7886L133.719 19.3047C133.338 19.6624 132.979 19.9324 132.642 20.1147ZM80.6497 22.8034V4.8688H76.4946L72.6221 12.7779L68.7609 4.8688H64.6058V22.8011H68.8326V14.2158L71.2768 18.6423H73.981L76.4251 14.2158V22.8011H80.6519L80.6497 22.8034ZM94.2583 22.8265V18.9031H86.7847V15.7413H93.1708V11.8179H86.7847V8.8176H94.2583V4.89419H82.5579V22.8265H94.2583ZM104.602 10.6685C104.602 10.987 104.528 11.2824 104.382 11.5571C104.237 11.8317 104.024 12.051 103.743 12.2194C103.463 12.3879 103.138 12.471 102.766 12.471H100.362V8.85453H102.766C103.136 8.85453 103.463 8.93761 103.743 9.10609C104.024 9.27456 104.237 9.49612 104.382 9.77307C104.528 10.05 104.602 10.35 104.602 10.6685ZM109.737 22.8265L106.026 15.3489C106.802 14.9474 107.463 14.3473 108.01 13.5465C108.555 12.7479 108.829 11.7855 108.829 10.6616C108.829 9.64613 108.598 8.69759 108.138 7.82059C107.679 6.94359 107.008 6.23507 106.127 5.69964C105.246 5.1619 104.19 4.89419 102.954 4.89419H96.1374V22.8265H100.364V16.1475H101.797L104.851 22.8265H109.739H109.737ZM40.7453 12.5171V16.1359H43.0795V16.3413C43.0795 16.7037 43.0302 17.0637 42.9293 17.4191C42.8284 17.7745 42.6737 18.0561 42.4651 18.2661C42.2476 18.4992 42.0099 18.6746 41.7498 18.7923C41.4897 18.91 41.1556 18.9677 40.7453 18.9677C40.0255 18.9677 39.4784 18.7184 39.1084 18.2176C38.9694 18.033 38.855 17.8022 38.7653 17.5276C38.6756 17.2529 38.6083 16.8329 38.5613 16.2698C38.5142 15.7043 38.4917 14.9035 38.4917 13.8626C38.4917 12.8218 38.5142 12.021 38.5613 11.4601C38.6083 10.8993 38.6756 10.4839 38.7653 10.2139C38.855 9.94385 38.9694 9.71537 39.1084 9.53074C39.4873 9.01377 40.0345 8.75529 40.7453 8.75529C41.2476 8.75529 41.6691 8.84991 42.0055 9.03916C42.2005 9.14763 42.4091 9.30457 42.6333 9.50535L45.9833 7.07514C45.2254 6.26738 44.4653 5.70426 43.7029 5.38115C42.9405 5.05805 41.9561 4.8965 40.7498 4.8965C39.743 4.8965 38.8707 5.05805 38.1285 5.38115C37.3863 5.70426 36.6934 6.20045 36.0521 6.86974C35.3099 7.64519 34.8368 8.5245 34.6372 9.51228C34.4354 10.5001 34.3345 11.7532 34.3345 13.2695V14.4558C34.3345 15.9721 34.4354 17.2229 34.6372 18.2061C34.839 19.1893 35.3099 20.0686 36.0521 20.844C37.3056 22.1664 38.8729 22.8288 40.752 22.8288C42.6311 22.8288 44.2792 22.1503 45.5551 20.7955C46.1739 20.1516 46.6045 19.3739 46.8489 18.4669C47.0933 17.5599 47.2144 16.3713 47.2144 14.9035V12.5195H40.7453V12.5171ZM123.048 15.0835C122.85 14.4512 122.532 13.9111 122.09 13.468C121.355 12.7179 120.242 12.231 118.756 12.0048L116.711 11.714C116.199 11.6425 115.812 11.4671 115.549 11.1947C115.325 10.9616 115.213 10.687 115.213 10.3731C115.213 9.94616 115.388 9.56766 115.735 9.23533C116.083 8.9053 116.592 8.73913 117.258 8.73913C117.962 8.73913 118.567 8.79914 119.07 8.92146C119.379 8.99531 119.675 9.13378 119.958 9.33226H119.955L123.088 7.05899C122.391 6.32508 121.577 5.78965 120.644 5.455C119.711 5.12036 118.621 4.95189 117.374 4.95189C116.128 4.95189 115.027 5.1896 114.094 5.66502C113.161 6.14045 112.444 6.80051 111.946 7.64288C111.446 8.48526 111.197 9.44304 111.197 10.5162C111.197 12.0486 111.583 13.2303 112.358 14.0611C113.125 14.8827 114.26 15.4043 115.762 15.6213L117.807 15.9236C118.325 15.9974 118.697 16.1544 118.922 16.3967C119.146 16.639 119.258 16.9852 119.258 17.4376C119.258 18.4946 118.449 19.0231 116.83 19.0231C116.094 19.0231 115.386 18.9239 114.704 18.7277C114.285 18.6054 113.915 18.4392 113.594 18.2269L110.383 20.5625C111.188 21.4164 112.109 22.0187 113.148 22.3649C114.186 22.7111 115.406 22.8842 116.807 22.8842C118.007 22.8842 119.106 22.6696 120.099 22.238C121.094 21.8064 121.884 21.1717 122.469 20.3317C123.054 19.4939 123.346 18.4969 123.346 17.3429C123.346 16.4729 123.247 15.7205 123.05 15.0858L123.048 15.0835ZM56.6815 16.4798H53.6835L55.2307 11.6955L56.6837 16.4798H56.6815ZM63.0743 22.8265L56.8183 4.89419H53.5489L47.2906 22.8265H51.717L52.5556 20.1586H57.8564L58.6592 22.8265H63.0743Z" fill="white"/>
</g>
<defs>
<clipPath id="clip0_178_28949">
<rect width="176" height="27" fill="white" transform="translate(0 0.5)"/>
</clipPath>
</defs>
</svg>
